<svg width="195" height="185" viewBox="0 0 195 185" fill="none" xmlns="http://www.w3.org/2000/svg">
<path d="M78.2694 62.5C61.7337 34.9913 19.2689 34.5002 5.26887 62.5C-7.68848 90.5754 5.26887 111.5 22.3244 120.5C22.7806 119.921 23.2451 119.337 23.7175 118.749C27.0238 114.637 30.7133 110.344 34.6181 106C25.2688 103 11.9572 88.354 22.3244 70.0002C32.3326 56.4065 50.9833 54.0728 64.2689 75.5744C69.3673 70.6764 74.1529 66.2245 78.2694 62.5Z" fill="currentColor"/>
<path d="M64.2689 101.5C123.057 50.3295 127.838 30.2531 127.769 0H126.269C128.333 29.0548 122.98 50.0574 64.2689 101.5Z" fill="currentColor"/>
<path d="M8.61774 145.5C8.62273 143.688 9.21779 141.495 10.3036 139C8.12663 144.006 7.642 146.716 7.17195 151.5C7.39523 149.42 7.87162 147.401 8.61774 145.5Z" fill="currentColor"/>
<path d="M55.2695 179C85.2544 157.254 91.2688 111 86.7689 85.5002C88.7392 118.374 87.7379 148.683 55.2695 179Z" fill="currentColor"/>
<path d="M34.381 165.5C35.0558 165.595 35.7631 165.647 36.5 165.656C36.7771 165.659 37.5584 165.656 37.8438 165.647C39.2219 165.533 39.9792 165.33 41.3828 164.625C41.7124 164.436 42.0384 164.243 42.3608 164.047C38.6432 165.604 36.7556 165.812 33.4749 165.342C33.7697 165.404 34.0718 165.457 34.381 165.5Z" fill="currentColor"/>
<path fill-rule="evenodd" clip-rule="evenodd" d="M36.5 165.656C35.7631 165.647 35.0558 165.595 34.381 165.5C35.1645 165.643 35.626 165.687 36.5 165.656Z" fill="currentColor"/>
<path d="M86.7689 85.5002L69.2689 101.5C69.7504 115.5 65.8834 144.2 48.214 159.731C46.4102 161.317 44.4624 162.765 42.3608 164.047C42.0384 164.243 41.7124 164.436 41.3828 164.625C40.8543 164.927 40.3163 165.219 39.7689 165.5C39.1089 165.578 38.4667 165.627 37.8438 165.647C37.5584 165.656 36.7771 165.659 36.5 165.656C35.626 165.687 35.1645 165.643 34.381 165.5C34.0718 165.457 33.7697 165.404 33.4749 165.342C20.8801 162.71 21.6739 143.595 55.9025 109.501C58.4939 106.919 61.2796 104.252 64.2689 101.5C122.98 50.0574 128.333 29.0548 126.269 0H108.769C107.422 28.2875 100.834 36.0109 84.296 55.3965C82.4177 57.5982 80.4112 59.9503 78.2694 62.5C74.1529 66.2245 69.3673 70.6764 64.2689 75.5744C54.7023 84.765 44.0342 95.5263 34.6181 106C30.7133 110.344 27.0238 114.637 23.7175 118.749C23.2451 119.337 22.7806 119.921 22.3244 120.5C16.8239 127.488 12.5311 133.881 10.3036 139C9.21779 141.495 8.62273 143.688 8.61774 145.5C7.87162 147.401 7.39523 149.42 7.17195 151.5C5.04647 171.3 25.8585 196.646 55.2695 179C87.7379 148.683 88.7392 118.374 86.7689 85.5002Z" fill="currentColor"/>
<path d="M37.8438 165.647C38.4667 165.627 39.1089 165.578 39.7689 165.5C40.3163 165.219 40.8543 164.927 41.3828 164.625C39.9792 165.33 39.2219 165.533 37.8438 165.647Z" fill="currentColor"/>
<path d="M116.5 62.5C133.036 34.9913 175.501 34.5002 189.501 62.5C202.458 90.5754 189.501 111.5 172.445 120.5C171.989 119.921 171.524 119.337 171.052 118.749C167.746 114.637 164.056 110.344 160.151 106C169.501 103 182.812 88.354 172.445 70.0002C162.437 56.4065 143.786 54.0728 130.501 75.5744C125.402 70.6764 120.617 66.2245 116.5 62.5Z" fill="currentColor"/>
<path d="M130.501 101.5C71.7126 50.3295 66.932 30.2531 67.0007 0H68.5001C66.4363 29.0548 71.7899 50.0574 130.501 101.5Z" fill="currentColor"/>
<path d="M186.152 145.5C186.147 143.688 185.552 141.495 184.466 139C186.643 144.006 187.128 146.716 187.598 151.5C187.374 149.42 186.898 147.401 186.152 145.5Z" fill="currentColor"/>
<path d="M139.5 179C109.515 157.254 103.501 111 108.001 85.5002C106.03 118.374 107.032 148.683 139.5 179Z" fill="currentColor"/>
<path d="M160.389 165.5C159.714 165.595 159.006 165.647 158.27 165.656C157.992 165.659 157.211 165.656 156.926 165.647C155.548 165.533 154.79 165.33 153.387 164.625C153.057 164.436 152.731 164.243 152.409 164.047C156.126 165.604 158.014 165.812 161.295 165.342C161 165.404 160.698 165.457 160.389 165.5Z" fill="currentColor"/>
<path fill-rule="evenodd" clip-rule="evenodd" d="M158.27 165.656C159.006 165.647 159.714 165.595 160.389 165.5C159.605 165.643 159.144 165.687 158.27 165.656Z" fill="currentColor"/>
<path d="M108.001 85.5002L125.501 101.5C125.019 115.5 128.886 144.2 146.555 159.731C148.359 161.317 150.307 162.765 152.409 164.047C152.731 164.243 153.057 164.436 153.387 164.625C153.915 164.927 154.453 165.219 155.001 165.5C155.661 165.578 156.303 165.627 156.926 165.647C157.211 165.656 157.992 165.659 158.27 165.656C159.144 165.687 159.605 165.643 160.389 165.5C160.698 165.457 161 165.404 161.295 165.342C173.889 162.71 173.096 143.595 138.867 109.501C136.276 106.919 133.49 104.252 130.501 101.5C71.7899 50.0574 66.4363 29.0548 68.5001 0H86.0001C87.3471 28.2875 93.9359 36.0109 110.474 55.3965C112.352 57.5982 114.358 59.9503 116.5 62.5C120.617 66.2245 125.402 70.6764 130.501 75.5744C140.067 84.765 150.735 95.5263 160.151 106C164.056 110.344 167.746 114.637 171.052 118.749C171.524 119.337 171.989 119.921 172.445 120.5C177.946 127.488 182.238 133.881 184.466 139C185.552 141.495 186.147 143.688 186.152 145.5C186.898 147.401 187.374 149.42 187.598 151.5C189.723 171.3 168.911 196.646 139.5 179C107.032 148.683 106.03 118.374 108.001 85.5002Z" fill="currentColor"/>
<path d="M156.926 165.647C156.303 165.627 155.661 165.578 155.001 165.5C154.453 165.219 153.915 164.927 153.387 164.625C154.79 165.33 155.548 165.533 156.926 165.647Z" fill="currentColor"/>
</svg>
