<svg version="1.1" xmlns="http://www.w3.org/2000/svg" xmlns:xlink="http://www.w3.org/1999/xlink" width="3300" height="2200" viewBox="0 0 3300 2200">
    <g id="Notes">
        <rect height="2200" id="artboard" style="fill:white;opacity:1" width="3300" x="0" y="0"></rect>
        <line style="fill:none;stroke:black;opacity:1;stroke-width:0.5;" x1="263" x2="3036" y1="292" y2="292"></line>
        <text style="stroke:none;fill:black;font-family:sans-serif;font-size:13;font-weight:bold;" transform="matrix(1 0 0 1 263 322)">Weight/Scale Variations</text>
        <text style="stroke:none;fill:black;font-family:sans-serif;font-size:13;text-anchor:middle;" transform="matrix(1 0 0 1 559.711 322)">Ultralight</text>
        <text style="stroke:none;fill:black;font-family:sans-serif;font-size:13;text-anchor:middle;" transform="matrix(1 0 0 1 856.422 322)">Thin</text>
        <text style="stroke:none;fill:black;font-family:sans-serif;font-size:13;text-anchor:middle;" transform="matrix(1 0 0 1 1153.13 322)">Light</text>
        <text style="stroke:none;fill:black;font-family:sans-serif;font-size:13;text-anchor:middle;" transform="matrix(1 0 0 1 1449.84 322)">Regular</text>
        <text style="stroke:none;fill:black;font-family:sans-serif;font-size:13;text-anchor:middle;" transform="matrix(1 0 0 1 1746.56 322)">Medium</text>
        <text style="stroke:none;fill:black;font-family:sans-serif;font-size:13;text-anchor:middle;" transform="matrix(1 0 0 1 2043.27 322)">Semibold</text>
        <text style="stroke:none;fill:black;font-family:sans-serif;font-size:13;text-anchor:middle;" transform="matrix(1 0 0 1 2339.98 322)">Bold</text>
        <text style="stroke:none;fill:black;font-family:sans-serif;font-size:13;text-anchor:middle;" transform="matrix(1 0 0 1 2636.69 322)">Heavy</text>
        <text style="stroke:none;fill:black;font-family:sans-serif;font-size:13;text-anchor:middle;" transform="matrix(1 0 0 1 2933.4 322)">Black</text>
        <line style="fill:none;stroke:black;opacity:1;stroke-width:0.5;" x1="263" x2="3036" y1="1903" y2="1903"></line>
        <g transform="matrix(1 0 0 1 263 1933)">
            <path d="M9.24805 0.830078Q10.8691 0.830078 12.2949 0.214844Q13.7207-0.400391 14.8096-1.49414Q15.8984-2.58789 16.5186-4.01367Q17.1387-5.43945 17.1387-7.05078Q17.1387-8.66211 16.5186-10.0879Q15.8984-11.5137 14.8047-12.6074Q13.7109-13.7012 12.2852-14.3164Q10.8594-14.9316 9.23828-14.9316Q7.62695-14.9316 6.20117-14.3164Q4.77539-13.7012 3.69141-12.6074Q2.60742-11.5137 1.9873-10.0879Q1.36719-8.66211 1.36719-7.05078Q1.36719-5.43945 1.9873-4.01367Q2.60742-2.58789 3.69629-1.49414Q4.78516-0.400391 6.21094 0.214844Q7.63672 0.830078 9.24805 0.830078ZM9.24805-0.654297Q7.91992-0.654297 6.7627-1.14746Q5.60547-1.64062 4.73145-2.51953Q3.85742-3.39844 3.36426-4.56055Q2.87109-5.72266 2.87109-7.05078Q2.87109-8.37891 3.35938-9.54102Q3.84766-10.7031 4.72168-11.582Q5.5957-12.4609 6.75293-12.9541Q7.91016-13.4473 9.23828-13.4473Q10.5762-13.4473 11.7334-12.9541Q12.8906-12.4609 13.7695-11.582Q14.6484-10.7031 15.1465-9.54102Q15.6445-8.37891 15.6445-7.05078Q15.6445-5.72266 15.1514-4.56055Q14.6582-3.39844 13.7842-2.51953Q12.9102-1.64062 11.748-1.14746Q10.5859-0.654297 9.24805-0.654297ZM5.83984-7.04102Q5.83984-6.71875 6.04492-6.51855Q6.25-6.31836 6.5918-6.31836L8.50586-6.31836L8.50586-4.39453Q8.50586-4.0625 8.70605-3.85742Q8.90625-3.65234 9.22852-3.65234Q9.56055-3.65234 9.76562-3.85742Q9.9707-4.0625 9.9707-4.39453L9.9707-6.31836L11.8945-6.31836Q12.2266-6.31836 12.4316-6.51855Q12.6367-6.71875 12.6367-7.04102Q12.6367-7.37305 12.4316-7.57812Q12.2266-7.7832 11.8945-7.7832L9.9707-7.7832L9.9707-9.69727Q9.9707-10.0391 9.76562-10.2441Q9.56055-10.4492 9.22852-10.4492Q8.90625-10.4492 8.70605-10.2441Q8.50586-10.0391 8.50586-9.69727L8.50586-7.7832L6.5918-7.7832Q6.25-7.7832 6.04492-7.57812Q5.83984-7.37305 5.83984-7.04102Z"></path>
        </g>
        <g transform="matrix(1 0 0 1 281.867 1933)">
            <path d="M11.709 2.91016Q13.75 2.91016 15.5518 2.12891Q17.3535 1.34766 18.7305-0.0292969Q20.1074-1.40625 20.8887-3.20801Q21.6699-5.00977 21.6699-7.05078Q21.6699-9.0918 20.8887-10.8936Q20.1074-12.6953 18.7305-14.0723Q17.3535-15.4492 15.5469-16.2305Q13.7402-17.0117 11.6992-17.0117Q9.6582-17.0117 7.85645-16.2305Q6.05469-15.4492 4.68262-14.0723Q3.31055-12.6953 2.5293-10.8936Q1.74805-9.0918 1.74805-7.05078Q1.74805-5.00977 2.5293-3.20801Q3.31055-1.40625 4.6875-0.0292969Q6.06445 1.34766 7.86621 2.12891Q9.66797 2.91016 11.709 2.91016ZM11.709 1.25Q9.98047 1.25 8.47656 0.605469Q6.97266-0.0390625 5.83496-1.17676Q4.69727-2.31445 4.05762-3.81836Q3.41797-5.32227 3.41797-7.05078Q3.41797-8.7793 4.05762-10.2832Q4.69727-11.7871 5.83008-12.9297Q6.96289-14.0723 8.4668-14.7119Q9.9707-15.3516 11.6992-15.3516Q13.4277-15.3516 14.9316-14.7119Q16.4355-14.0723 17.5781-12.9297Q18.7207-11.7871 19.3652-10.2832Q20.0098-8.7793 20.0098-7.05078Q20.0098-5.32227 19.3701-3.81836Q18.7305-2.31445 17.5928-1.17676Q16.4551-0.0390625 14.9463 0.605469Q13.4375 1.25 11.709 1.25ZM7.39258-7.04102Q7.39258-6.68945 7.62695-6.46484Q7.86133-6.24023 8.23242-6.24023L10.8789-6.24023L10.8789-3.57422Q10.8789-3.21289 11.1035-2.9834Q11.3281-2.75391 11.6797-2.75391Q12.0508-2.75391 12.2852-2.9834Q12.5195-3.21289 12.5195-3.57422L12.5195-6.24023L15.1758-6.24023Q15.5371-6.24023 15.7715-6.46484Q16.0059-6.68945 16.0059-7.04102Q16.0059-7.41211 15.7715-7.6416Q15.5371-7.87109 15.1758-7.87109L12.5195-7.87109L12.5195-10.5176Q12.5195-10.8984 12.2852-11.1279Q12.0508-11.3574 11.6797-11.3574Q11.3281-11.3574 11.1035-11.1279Q10.8789-10.8984 10.8789-10.5176L10.8789-7.87109L8.23242-7.87109Q7.85156-7.87109 7.62207-7.6416Q7.39258-7.41211 7.39258-7.04102Z"></path>
        </g>
        <g transform="matrix(1 0 0 1 305.646 1933)">
            <path d="M14.9707 5.66406Q17.0605 5.66406 18.96 5.01465Q20.8594 4.36523 22.4512 3.19336Q24.043 2.02148 25.2197 0.429688Q26.3965-1.16211 27.0459-3.06641Q27.6953-4.9707 27.6953-7.05078Q27.6953-9.14062 27.0459-11.04Q26.3965-12.9395 25.2197-14.5312Q24.043-16.123 22.4512-17.2998Q20.8594-18.4766 18.9551-19.126Q17.0508-19.7754 14.9609-19.7754Q12.8711-19.7754 10.9717-19.126Q9.07227-18.4766 7.48535-17.2998Q5.89844-16.123 4.72168-14.5312Q3.54492-12.9395 2.90039-11.04Q2.25586-9.14062 2.25586-7.05078Q2.25586-4.9707 2.90527-3.06641Q3.55469-1.16211 4.72656 0.429688Q5.89844 2.02148 7.49023 3.19336Q9.08203 4.36523 10.9814 5.01465Q12.8809 5.66406 14.9707 5.66406ZM14.9707 3.84766Q13.1641 3.84766 11.5283 3.2959Q9.89258 2.74414 8.53516 1.74805Q7.17773 0.751953 6.17676-0.610352Q5.17578-1.97266 4.62891-3.6084Q4.08203-5.24414 4.08203-7.05078Q4.08203-8.86719 4.62891-10.5029Q5.17578-12.1387 6.17188-13.501Q7.16797-14.8633 8.52539-15.8594Q9.88281-16.8555 11.5186-17.4023Q13.1543-17.9492 14.9609-17.9492Q16.7773-17.9492 18.4131-17.4023Q20.0488-16.8555 21.4111-15.8594Q22.7734-14.8633 23.7695-13.501Q24.7656-12.1387 25.3174-10.5029Q25.8691-8.86719 25.8691-7.05078Q25.8789-5.24414 25.332-3.6084Q24.7852-1.97266 23.7842-0.610352Q22.7832 0.751953 21.4209 1.74805Q20.0586 2.74414 18.4229 3.2959Q16.7871 3.84766 14.9707 3.84766ZM9.45312-7.04102Q9.45312-6.66016 9.71191-6.41113Q9.9707-6.16211 10.3711-6.16211L14.0625-6.16211L14.0625-2.46094Q14.0625-2.06055 14.3115-1.80664Q14.5605-1.55273 14.9414-1.55273Q15.3516-1.55273 15.6055-1.80664Q15.8594-2.06055 15.8594-2.46094L15.8594-6.16211L19.5605-6.16211Q19.9609-6.16211 20.2148-6.41113Q20.4688-6.66016 20.4688-7.04102Q20.4688-7.45117 20.2148-7.70508Q19.9609-7.95898 19.5605-7.95898L15.8594-7.95898L15.8594-11.6504Q15.8594-12.0605 15.6055-12.3145Q15.3516-12.5684 14.9414-12.5684Q14.5605-12.5684 14.3115-12.3096Q14.0625-12.0508 14.0625-11.6504L14.0625-7.95898L10.3711-7.95898Q9.96094-7.95898 9.70703-7.70508Q9.45312-7.45117 9.45312-7.04102Z"></path>
        </g>
        <text style="stroke:none;fill:black;font-family:sans-serif;font-size:13;font-weight:bold;" transform="matrix(1 0 0 1 263 1953)">Design Variations</text>
        <text style="stroke:none;fill:black;font-family:sans-serif;font-size:13;" transform="matrix(1 0 0 1 263 1971)">Symbols are supported in up to nine weights and three scales.</text>
        <text style="stroke:none;fill:black;font-family:sans-serif;font-size:13;" transform="matrix(1 0 0 1 263 1989)">For optimal layout with text and other symbols, vertically align</text>
        <text style="stroke:none;fill:black;font-family:sans-serif;font-size:13;" transform="matrix(1 0 0 1 263 2007)">symbols with the adjacent text.</text>
        <line style="fill:none;stroke:#00AEEF;stroke-width:0.5;opacity:1.0;" x1="776" x2="776" y1="1919" y2="1933"></line>
        <g transform="matrix(1 0 0 1 776 1933)">
            <path d="M3.31055 0.15625Q3.70117 0.15625 3.91602-0.00976562Q4.13086-0.175781 4.26758-0.585938L5.52734-4.0332L11.2891-4.0332L12.5488-0.585938Q12.6855-0.175781 12.9004-0.00976562Q13.1152 0.15625 13.4961 0.15625Q13.8867 0.15625 14.1162-0.0585938Q14.3457-0.273438 14.3457-0.644531Q14.3457-0.869141 14.2383-1.17188L9.6582-13.3691Q9.48242-13.8184 9.17969-14.043Q8.87695-14.2676 8.4082-14.2676Q7.5-14.2676 7.17773-13.3789L2.59766-1.16211Q2.49023-0.859375 2.49023-0.634766Q2.49023-0.263672 2.70996-0.0537109Q2.92969 0.15625 3.31055 0.15625ZM6.00586-5.51758L8.37891-12.0898L8.42773-12.0898L10.8008-5.51758Z"></path>
        </g>
        <line style="fill:none;stroke:#00AEEF;stroke-width:0.5;opacity:1.0;" x1="793.197" x2="793.197" y1="1919" y2="1933"></line>
        <text style="stroke:none;fill:black;font-family:sans-serif;font-size:13;font-weight:bold;" transform="matrix(1 0 0 1 776 1953)">Margins</text>
        <text style="stroke:none;fill:black;font-family:sans-serif;font-size:13;" transform="matrix(1 0 0 1 776 1971)">Leading and trailing margins on the left and right side of each symbol</text>
        <text style="stroke:none;fill:black;font-family:sans-serif;font-size:13;" transform="matrix(1 0 0 1 776 1989)">can be adjusted by modifying the x-location of the margin guidelines.</text>
        <text style="stroke:none;fill:black;font-family:sans-serif;font-size:13;" transform="matrix(1 0 0 1 776 2007)">Modifications are automatically applied proportionally to all</text>
        <text style="stroke:none;fill:black;font-family:sans-serif;font-size:13;" transform="matrix(1 0 0 1 776 2025)">scales and weights.</text>
        <g transform="matrix(1 0 0 1 1289 1933)">
            <path d="M2.8418 1.86523L4.54102 3.57422Q5.18555 4.22852 5.90332 4.17969Q6.62109 4.13086 7.31445 3.35938L18.0078-8.42773L17.041-9.4043L6.42578 2.27539Q6.16211 2.57812 5.89355 2.61719Q5.625 2.65625 5.27344 2.30469L4.10156 1.14258Q3.75 0.791016 3.79395 0.522461Q3.83789 0.253906 4.14062-0.0195312L15.6152-10.8203L14.6387-11.7871L3.04688-0.898438Q2.30469-0.214844 2.25098 0.498047Q2.19727 1.21094 2.8418 1.86523ZM9.25781-16.3281Q8.94531-16.0254 8.90625-15.6348Q8.86719-15.2441 9.04297-14.9512Q9.21875-14.6777 9.55566-14.541Q9.89258-14.4043 10.3809-14.5215Q11.4746-14.7754 12.5977-14.7314Q13.7207-14.6875 14.7949-13.9844L14.209-12.5293Q13.9551-11.9043 14.0674-11.4404Q14.1797-10.9766 14.5801-10.5664L16.875-8.25195Q17.2363-7.88086 17.5781-7.82227Q17.9199-7.76367 18.3398-7.8418L19.4043-8.03711L20.0684-7.36328L20.0293-6.80664Q20-6.43555 20.1221-6.12305Q20.2441-5.81055 20.6055-5.44922L21.3672-4.70703Q21.7285-4.3457 22.1533-4.33105Q22.5781-4.31641 22.9297-4.66797L25.8398-7.58789Q26.1914-7.93945 26.1816-8.35449Q26.1719-8.76953 25.8105-9.13086L25.0391-9.89258Q24.6875-10.2539 24.3799-10.3857Q24.0723-10.5176 23.7109-10.4883L23.1348-10.4395L22.4902-11.0742L22.7344-12.1973Q22.832-12.6172 22.6953-12.9834Q22.5586-13.3496 22.1191-13.7891L19.9219-15.9766Q18.6719-17.2168 17.2607-17.8369Q15.8496-18.457 14.4189-18.4814Q12.9883-18.5059 11.665-17.959Q10.3418-17.4121 9.25781-16.3281ZM10.752-15.957Q11.6602-16.6211 12.7002-16.9043Q13.7402-17.1875 14.8047-17.085Q15.8691-16.9824 16.8701-16.5137Q17.8711-16.0449 18.7012-15.2051L21.1328-12.793Q21.3086-12.6172 21.3525-12.4512Q21.3965-12.2852 21.3379-12.0312L21.0156-10.5469L22.5195-9.0625L23.5059-9.12109Q23.6914-9.13086 23.7891-9.09668Q23.8867-9.0625 24.0332-8.91602L24.6094-8.33984L22.168-5.89844L21.5918-6.47461Q21.4453-6.62109 21.4062-6.71875Q21.3672-6.81641 21.377-7.01172L21.4453-7.98828L19.9512-9.47266L18.4277-9.21875Q18.1836-9.16992 18.042-9.2041Q17.9004-9.23828 17.7148-9.41406L15.7129-11.416Q15.5176-11.5918 15.4932-11.7529Q15.4688-11.9141 15.5859-12.1875L16.4648-14.2773Q15.293-15.3711 13.8281-15.791Q12.3633-16.2109 10.8398-15.7617Q10.7227-15.7324 10.6885-15.8057Q10.6543-15.8789 10.752-15.957Z"></path>
        </g>
        <text style="stroke:none;fill:black;font-family:sans-serif;font-size:13;font-weight:bold;" transform="matrix(1 0 0 1 1289 1953)">Exporting</text>
        <text style="stroke:none;fill:black;font-family:sans-serif;font-size:13;" transform="matrix(1 0 0 1 1289 1971)">Symbols should be outlined when exporting to ensure the</text>
        <text style="stroke:none;fill:black;font-family:sans-serif;font-size:13;" transform="matrix(1 0 0 1 1289 1989)">design is preserved when submitting to Xcode.</text>
        <text id="template-version" style="stroke:none;fill:black;font-family:sans-serif;font-size:13;text-anchor:end;" transform="matrix(1 0 0 1 3036 1933)">Template v.3.0</text>
        <text style="stroke:none;fill:black;font-family:sans-serif;font-size:13;text-anchor:end;" transform="matrix(1 0 0 1 3036 1951)">Requires Xcode 13 or greater</text>
        <text id="descriptive-name" style="stroke:none;fill:black;font-family:sans-serif;font-size:13;text-anchor:end;" transform="matrix(1 0 0 1 3036 1969)">Generated from custom.pencil.circle</text>
        <text style="stroke:none;fill:black;font-family:sans-serif;font-size:13;text-anchor:end;" transform="matrix(1 0 0 1 3036 1987)">Typeset at 100 points</text>
        <text style="stroke:none;fill:black;font-family:sans-serif;font-size:13;" transform="matrix(1 0 0 1 263 726)">Small</text>
        <text style="stroke:none;fill:black;font-family:sans-serif;font-size:13;" transform="matrix(1 0 0 1 263 1156)">Medium</text>
        <text style="stroke:none;fill:black;font-family:sans-serif;font-size:13;" transform="matrix(1 0 0 1 263 1586)">Large</text>
    </g>
    <g id="Guides">
        <g id="H-reference" style="fill:#27AAE1;stroke:none;" transform="matrix(1 0 0 1 339 696)">
            <path d="M0.976562 0L3.66211 0L29.3457-67.1387L30.0293-67.1387L30.0293-70.459L28.125-70.459ZM11.6699-24.4629L46.9727-24.4629L46.2402-26.709L12.4512-26.709ZM55.127 0L57.7637 0L30.6152-70.459L29.4434-70.459L29.4434-67.1387Z"></path>
        </g>
        <line id="Baseline-S" style="fill:none;stroke:#27AAE1;opacity:1;stroke-width:0.5;" x1="263" x2="3036" y1="696" y2="696"></line>
        <line id="Capline-S" style="fill:none;stroke:#27AAE1;opacity:1;stroke-width:0.5;" x1="263" x2="3036" y1="625.541" y2="625.541"></line>
        <g id="H-reference" style="fill:#27AAE1;stroke:none;" transform="matrix(1 0 0 1 339 1126)">
            <path d="M0.976562 0L3.66211 0L29.3457-67.1387L30.0293-67.1387L30.0293-70.459L28.125-70.459ZM11.6699-24.4629L46.9727-24.4629L46.2402-26.709L12.4512-26.709ZM55.127 0L57.7637 0L30.6152-70.459L29.4434-70.459L29.4434-67.1387Z"></path>
        </g>
        <line id="Baseline-M" style="fill:none;stroke:#27AAE1;opacity:1;stroke-width:0.5;" x1="263" x2="3036" y1="1126" y2="1126"></line>
        <line id="Capline-M" style="fill:none;stroke:#27AAE1;opacity:1;stroke-width:0.5;" x1="263" x2="3036" y1="1055.54" y2="1055.54"></line>
        <g id="H-reference" style="fill:#27AAE1;stroke:none;" transform="matrix(1 0 0 1 339 1556)">
            <path d="M0.976562 0L3.66211 0L29.3457-67.1387L30.0293-67.1387L30.0293-70.459L28.125-70.459ZM11.6699-24.4629L46.9727-24.4629L46.2402-26.709L12.4512-26.709ZM55.127 0L57.7637 0L30.6152-70.459L29.4434-70.459L29.4434-67.1387Z"></path>
        </g>
        <line id="Baseline-L" style="fill:none;stroke:#27AAE1;opacity:1;stroke-width:0.5;" x1="263" x2="3036" y1="1556" y2="1556"></line>
        <line id="Capline-L" style="fill:none;stroke:#27AAE1;opacity:1;stroke-width:0.5;" x1="263" x2="3036" y1="1485.54" y2="1485.54"></line>
        <line id="left-margin-Ultralight-S" style="fill:none;stroke:#00AEEF;stroke-width:0.5;opacity:1.0;" x1="509.79019653320313" x2="509.79019653320313" y1="600.784" y2="720.121"></line>
        <line id="right-margin-Ultralight-S" style="fill:none;stroke:#00AEEF;stroke-width:0.5;opacity:1.0;" x1="609.6318005371094" x2="609.6318005371094" y1="600.784" y2="720.121"></line>
        <line id="left-margin-Regular-S" style="fill:none;stroke:#00AEEF;stroke-width:0.5;opacity:1.0;" x1="1396.4024272727966" x2="1396.4024272727966" y1="600.784" y2="720.121"></line>
        <line id="right-margin-Regular-S" style="fill:none;stroke:#00AEEF;stroke-width:0.5;opacity:1.0;" x1="1503.2875141334534" x2="1503.2875141334534" y1="600.784" y2="720.121"></line>
        <line id="left-margin-Black-S" style="fill:none;stroke:#00AEEF;stroke-width:0.5;opacity:1.0;" x1="2877.438005924225" x2="2877.438005924225" y1="600.784" y2="720.121"></line>
        <line id="right-margin-Black-S" style="fill:none;stroke:#00AEEF;stroke-width:0.5;opacity:1.0;" x1="2989.3620429039" x2="2989.3620429039" y1="600.784" y2="720.121"></line>
    </g>
<g id="Symbols"><g id="Ultralight-S" transform="matrix(1,0,0,1,504.96099853515625,606.0205078125)"><path d="M65.7 84.49239H43.8V58.40073C43.8 56.383739999999996 45.43373999999999 54.75 47.45073 54.75h14.600729999999999C64.06626 54.75 65.7 56.383739999999996 65.7 58.40073V84.49239z"></path><path d="M87.6 78.84c0 3.62883-2.94117 6.57-6.57 6.57H28.47c-3.62883 0-6.57-2.94117-6.57-6.57V41.75454l2.19-1.97976V78.84c0 2.41995 1.96005 4.38 4.38 4.38h52.56c2.41995 0 4.38-1.96005 4.38-4.38V39.77478l2.19 1.97976V78.84z"></path><path d="M87.6 39.842670000000005l-6.57-5.475V24.09c0-1.2088800000000002 0.98112-2.19 2.19-2.19h2.19c1.2088800000000002 0 2.19 0.98112 2.19 2.19V39.842670000000005z"></path><path d="M93.77798999999999 44.72199c0.46427999999999997 0.38763 0.5256 1.07967 0.13797 1.54395-0.21681 0.25842-0.52779 0.39200999999999997-0.84096 0.39200999999999997-0.24747 0-0.49713-0.08322-0.7008-0.25404L55.538399999999996 15.625649999999998c-0.45770999999999995-0.38325-1.12347-0.38325-1.5811799999999998 0L17.12799 46.40172c-0.46427999999999997 0.38981999999999994-1.15194 0.32631-1.54395-0.13797-0.38763-0.46427999999999997-0.32631-1.15413 0.13797-1.54395L52.56657 13.93497c1.2636299999999998-1.05558 3.09885-1.05558 4.36248 0L93.77798999999999 44.72199z"></path></g><g id="Regular-S" transform="matrix(1,0,0,1,1392.564970703125,603.4905078125)"><path d="M68.02 89.5H46.54V60.86c0-1.97795 1.60205-3.58 3.58-3.58h14.32c1.97795 0 3.58 1.60205 3.58 3.58V89.5z"></path><path d="M93.08 84.13c0 4.94219-4.00781 8.95-8.95 8.95H30.43c-4.94219 0-8.95-4.00781-8.95-8.95V48.33l7.16-5.37v39.38c0 1.97795 1.60205 3.58 3.58 3.58h50.120000000000005c1.97795 0 3.58-1.60205 3.58-3.58V42.96l7.16 5.37V84.13z"></path><path d="M93.08 42.96l-10.74-8.95v-7.16c0-1.97795 1.60205-3.58 3.58-3.58h3.58c1.97795 0 3.58 1.60205 3.58 3.58V42.96z"></path><path d="M98.83127 46.86936c1.32818 1.1098000000000001 1.81864 3.0251 0.9862900000000001 4.543019999999999-0.68199 1.24226-1.9153000000000002 1.88845-3.15935 1.88845-0.80908 0-1.6235300000000001-0.27208-2.29299-0.83235L57.85817 21.9633c-0.33473-0.27924-0.8216100000000001-0.27924-1.1563400000000001 0L20.19478 52.46669c-1.66649 1.39262-4.23156 1.01135-5.389690000000001-0.9433300000000001-0.90932-1.53582-0.42064999999999997-3.53167 0.9487000000000001-4.67548L52.688649999999996 15.9847c2.65815-2.2213900000000004 6.5245500000000005-2.2213900000000004 9.1827 0L98.83127 46.86936z"></path></g><g id="Black-S" transform="matrix(1,0,0,1,2870.4000244140625,597.7705078125)"><path d="M73.5 94.5H52.5V66.5c0-1.9337499999999999 1.5662500000000001-3.5 3.5-3.5h14c1.9337499999999999 0 3.5 1.5662500000000001 3.5 3.5V94.5z"></path><path d="M101.5 87.5c0 7.7315000000000005-6.2684999999999995 14-14 14H38.5c-7.7315000000000005 0-14-6.2684999999999995-14-14V53.375l14-5.7749999999999995v39.025c0 0.48300000000000004 0.392 0.875 0.875 0.875h47.25c0.48300000000000004 0 0.875-0.392 0.875-0.875V47.6l14 5.7749999999999995V87.5z"></path><path d="M101.5 50.16725L87.5 38.5v-9.33275C87.5 26.5895 89.5895 24.5 92.16725 24.5h4.667249999999999C99.4105 24.5 101.5 26.5895 101.5 29.167250000000003V50.16725z"></path><path d="M105.73325 50.554c2.96275 2.4762500000000003 3.6487499999999997 6.9335 1.2389999999999999 9.9505-1.38775 1.73775-3.423 2.63375-5.47575 2.63375-1.58375 0-3.1745-0.53375-4.483499999999999-1.62925L64.12174999999999 34.02875c-0.64925-0.5425-1.5942500000000002-0.5425-2.2435 0L28.987000000000002 61.50900000000001c-3.33025 2.786-8.49275 1.9425000000000001-10.682-2.09825-1.59075-2.93825-0.714-6.622 1.8497499999999998-8.764l37.234750000000005-31.1115c3.248-2.71425 7.973-2.71425 11.221 0L105.73325 50.554z"></path></g></g></svg>